<svg width="2000" height="1024" viewBox="0 0 2000 1024" fill="none" xmlns="http://www.w3.org/2000/svg">
<g clip-path="url(#clip0_577_21)">
<rect width="2000" height="1024" fill="#BDCAB8"/>
<path d="M948 687C768.056 746.91 651.826 715.492 548.281 763.116C255.913 897.586 47.8023 1010.22 87.9627 1041" stroke="#65421E" stroke-width="20"/>
<path d="M501 784L342.728 900.323L274 1059" stroke="#65421E" stroke-width="20"/>
<g filter="url(#filter0_d_577_21)">
<path d="M1436.5 428C1475.6 622.939 1346.55 888.048 1227.15 912C1107.75 935.952 906.562 754.307 867.457 559.368C828.353 364.429 895.25 128.952 1014.65 105C1134.05 81.0484 1397.4 233.061 1436.5 428Z" fill="#65421E"/>
</g>
<path d="M999 0H1033V93L1080 154H1033L999 93V0Z" fill="url(#paint0_radial_577_21)"/>
<g opacity="0.8" filter="url(#filter1_d_577_21)">
<path d="M1436.5 428C1475.6 622.939 1277.9 860.548 1158.5 884.5C1039.1 908.452 1005.1 729.439 966 534.5C926.895 339.561 867.599 166.951 987 143C1106.4 119.048 1397.4 233.061 1436.5 428Z" fill="#D9D9D9"/>
</g>
</g>
<defs>
<filter id="filter0_d_577_21" x="848.277" y="96.5112" width="607.352" height="831.621" filterUnits="userSpaceOnUse" color-interpolation-filters="sRGB">
<feFlood flood-opacity="0" result="BackgroundImageFix"/>
<feColorMatrix in="SourceAlpha" type="matrix" values="0 0 0 0 0 0 0 0 0 0 0 0 0 0 0 0 0 0 127 0" result="hardAlpha"/>
<feOffset dx="2" dy="4"/>
<feGaussianBlur stdDeviation="5"/>
<feComposite in2="hardAlpha" operator="out"/>
<feColorMatrix type="matrix" values="0 0 0 0 0 0 0 0 0 0 0 0 0 0 0 0 0 0 0.25 0"/>
<feBlend mode="normal" in2="BackgroundImageFix" result="effect1_dropShadow_577_21"/>
<feBlend mode="normal" in="SourceGraphic" in2="effect1_dropShadow_577_21" result="shape"/>
</filter>
<filter id="filter1_d_577_21" x="914.232" y="139.843" width="529.305" height="752.817" filterUnits="userSpaceOnUse" color-interpolation-filters="sRGB">
<feFlood flood-opacity="0" result="BackgroundImageFix"/>
<feColorMatrix in="SourceAlpha" type="matrix" values="0 0 0 0 0 0 0 0 0 0 0 0 0 0 0 0 0 0 127 0" result="hardAlpha"/>
<feOffset dy="4"/>
<feGaussianBlur stdDeviation="1"/>
<feComposite in2="hardAlpha" operator="out"/>
<feColorMatrix type="matrix" values="0 0 0 0 0 0 0 0 0 0 0 0 0 0 0 0 0 0 0.25 0"/>
<feBlend mode="normal" in2="BackgroundImageFix" result="effect1_dropShadow_577_21"/>
<feBlend mode="normal" in="SourceGraphic" in2="effect1_dropShadow_577_21" result="shape"/>
</filter>
<radialGradient id="paint0_radial_577_21" cx="0" cy="0" r="1" gradientUnits="userSpaceOnUse" gradientTransform="translate(1039.5 77) rotate(90) scale(77 40.5)">
<stop stop-color="#6B8E44"/>
<stop offset="0.764423" stop-color="#6B8E44"/>
<stop offset="1" stop-color="#3F632B"/>
</radialGradient>
<clipPath id="clip0_577_21">
<rect width="2000" height="1024" fill="white"/>
</clipPath>
</defs>
</svg>
