<svg width="2000" height="1024" viewBox="0 0 2000 1024" fill="none" xmlns="http://www.w3.org/2000/svg">
<g clip-path="url(#clip0_611_253)">
<rect width="2000" height="1024" fill="#BDCAB8"/>
<g opacity="0.8" filter="url(#filter0_d_611_253)">
<path d="M314.841 662.2C513.664 662.099 707.877 918.177 707.943 1047.85C708.009 1177.53 525.806 1175.62 326.983 1175.72C128.161 1175.82 -52.7265 1201.67 -52.7923 1072C-52.858 942.32 116.019 662.3 314.841 662.2Z" fill="#D9D9D9"/>
</g>
<g filter="url(#filter1_d_611_253)">
<path d="M886.484 77.4768C892.22 106.07 873.29 144.957 855.777 148.47C838.263 151.983 808.753 125.34 803.017 96.7459C797.281 68.1523 807.094 33.6125 824.607 30.0992C842.121 26.586 880.748 48.8832 886.484 77.4768Z" fill="#65421E"/>
</g>
<path opacity="0.8" d="M823.801 32.0422C826.938 32.0406 830.001 35.9222 830.002 37.8879C830.003 39.8535 827.129 39.8247 823.993 39.8262C820.856 39.8278 818.003 40.2197 818.002 38.2541C818.001 36.2884 820.665 32.0438 823.801 32.0422Z" fill="#D9D9D9" fill-opacity="0.5"/>
<path d="M815 0H820.037V22.3442L827 37H820.037L815 22.3442V0Z" fill="url(#paint0_radial_611_253)"/>
</g>
<defs>
<filter id="filter0_d_611_253" x="-54.7922" y="662.2" width="764.736" height="521.686" filterUnits="userSpaceOnUse" color-interpolation-filters="sRGB">
<feFlood flood-opacity="0" result="BackgroundImageFix"/>
<feColorMatrix in="SourceAlpha" type="matrix" values="0 0 0 0 0 0 0 0 0 0 0 0 0 0 0 0 0 0 127 0" result="hardAlpha"/>
<feOffset dy="4"/>
<feGaussianBlur stdDeviation="1"/>
<feComposite in2="hardAlpha" operator="out"/>
<feColorMatrix type="matrix" values="0 0 0 0 0 0 0 0 0 0 0 0 0 0 0 0 0 0 0.25 0"/>
<feBlend mode="normal" in2="BackgroundImageFix" result="effect1_dropShadow_611_253"/>
<feBlend mode="normal" in="SourceGraphic" in2="effect1_dropShadow_611_253" result="shape"/>
</filter>
<filter id="filter1_d_611_253" x="793.377" y="23.7344" width="106.153" height="139.048" filterUnits="userSpaceOnUse" color-interpolation-filters="sRGB">
<feFlood flood-opacity="0" result="BackgroundImageFix"/>
<feColorMatrix in="SourceAlpha" type="matrix" values="0 0 0 0 0 0 0 0 0 0 0 0 0 0 0 0 0 0 127 0" result="hardAlpha"/>
<feOffset dx="2" dy="4"/>
<feGaussianBlur stdDeviation="5"/>
<feComposite in2="hardAlpha" operator="out"/>
<feColorMatrix type="matrix" values="0 0 0 0 0 0 0 0 0 0 0 0 0 0 0 0 0 0 0.25 0"/>
<feBlend mode="normal" in2="BackgroundImageFix" result="effect1_dropShadow_611_253"/>
<feBlend mode="normal" in="SourceGraphic" in2="effect1_dropShadow_611_253" result="shape"/>
</filter>
<radialGradient id="paint0_radial_611_253" cx="0" cy="0" r="1" gradientUnits="userSpaceOnUse" gradientTransform="translate(821 18.5) rotate(90) scale(18.5 6)">
<stop stop-color="#6B8E44"/>
<stop offset="0.764423" stop-color="#6B8E44"/>
<stop offset="1" stop-color="#3F632B"/>
</radialGradient>
<clipPath id="clip0_611_253">
<rect width="2000" height="1024" fill="white"/>
</clipPath>
</defs>
</svg>
