<svg width="8" height="10" viewBox="0 0 8 10" fill="none" xmlns="http://www.w3.org/2000/svg">
<path fill-rule="evenodd" clip-rule="evenodd" d="M4.1235 9.29329C4.69856 8.782 5.23077 8.22628 5.715 7.63148C6.735 6.37582 7.3555 5.13779 7.3975 4.03694C7.41412 3.58954 7.33854 3.14345 7.17527 2.72532C7.012 2.30718 6.7644 1.92558 6.44725 1.60331C6.1301 1.28103 5.74991 1.0247 5.32939 0.84962C4.90887 0.67454 4.45666 0.584305 3.99975 0.584305C3.54285 0.584305 3.09063 0.67454 2.67011 0.84962C2.24959 1.0247 1.8694 1.28103 1.55225 1.60331C1.2351 1.92558 0.987498 2.30718 0.82423 2.72532C0.660962 3.14345 0.58538 3.58954 0.602 4.03694C0.6445 5.13779 1.2655 6.37582 2.285 7.63148C2.76923 8.22628 3.30144 8.782 3.8765 9.29329C3.93183 9.34228 3.973 9.37788 4 9.40009L4.1235 9.29329ZM3.631 9.86405C3.631 9.86405 0 6.8677 0 3.91936C0 2.87988 0.421427 1.88298 1.17157 1.14795C1.92172 0.412931 2.93913 0 4 0C5.06087 0 6.07828 0.412931 6.82843 1.14795C7.57857 1.88298 8 2.87988 8 3.91936C8 6.8677 4.369 9.86405 4.369 9.86405C4.167 10.0463 3.8345 10.0443 3.631 9.86405ZM4 5.29113C4.3713 5.29113 4.7274 5.14661 4.98995 4.88935C5.2525 4.63209 5.4 4.28318 5.4 3.91936C5.4 3.55554 5.2525 3.20662 4.98995 2.94937C4.7274 2.69211 4.3713 2.54758 4 2.54758C3.6287 2.54758 3.2726 2.69211 3.01005 2.94937C2.7475 3.20662 2.6 3.55554 2.6 3.91936C2.6 4.28318 2.7475 4.63209 3.01005 4.88935C3.2726 5.14661 3.6287 5.29113 4 5.29113ZM4 5.87904C3.46957 5.87904 2.96086 5.67257 2.58579 5.30506C2.21071 4.93755 2 4.4391 2 3.91936C2 3.39962 2.21071 2.90117 2.58579 2.53366C2.96086 2.16614 3.46957 1.95968 4 1.95968C4.53043 1.95968 5.03914 2.16614 5.41421 2.53366C5.78929 2.90117 6 3.39962 6 3.91936C6 4.4391 5.78929 4.93755 5.41421 5.30506C5.03914 5.67257 4.53043 5.87904 4 5.87904Z" fill="black"/>
</svg>
