<svg width="58" height="58" viewBox="0 0 58 58" fill="none" xmlns="http://www.w3.org/2000/svg">
<path fill-rule="evenodd" clip-rule="evenodd" d="M18.1248 14.5C18.1248 11.6158 19.2706 8.84967 21.31 6.81021C23.3495 4.77076 26.1156 3.625 28.9998 3.625C31.8841 3.625 34.6502 4.77076 36.6896 6.81021C38.7291 8.84967 39.8748 11.6158 39.8748 14.5C39.8748 17.3842 38.7291 20.1503 36.6896 22.1898C34.6502 24.2292 31.8841 25.375 28.9998 25.375C26.1156 25.375 23.3495 24.2292 21.31 22.1898C19.2706 20.1503 18.1248 17.3842 18.1248 14.5ZM9.06474 48.5871C9.14623 43.3537 11.2824 38.3623 15.0121 34.6902C18.7418 31.0182 23.7658 28.96 28.9998 28.96C34.2338 28.96 39.2579 31.0182 42.9876 34.6902C46.7173 38.3623 48.8534 43.3537 48.9349 48.5871C48.9412 48.9394 48.8446 49.2859 48.6571 49.5842C48.4695 49.8825 48.1991 50.1197 47.8788 50.2667C41.9556 52.981 35.5154 54.3825 28.9998 54.375C22.267 54.375 15.8701 52.9057 10.1208 50.2667C9.80058 50.1197 9.53013 49.8825 9.34257 49.5842C9.155 49.2859 9.05846 48.9394 9.06474 48.5871Z" fill="#34797B"/>
</svg>
